<svg xmlns="http://www.w3.org/2000/svg" viewBox="0 0 32 32" width="32" height="32">
  <defs>
    <linearGradient id="g" x1="0" y1="0" x2="1" y2="1">
      <stop offset="0" stop-color="#3b5bdb"/>
      <stop offset="1" stop-color="#8b5cf6"/>
    </linearGradient>
  </defs>
  <!-- background -->
  <rect width="32" height="32" rx="7" fill="url(#g)"/>
  <!-- file body -->
  <path d="M10 6h7l5 5v15a1.5 1.5 0 0 1-1.5 1.5h-10.5A1.5 1.5 0 0 1 8.5 26V7.5A1.5 1.5 0 0 1 10 6Z"
        fill="white" opacity="0.95"/>
  <!-- folded corner -->
  <path d="M17 6l5 5h-4a1 1 0 0 1-1-1V6Z"
        fill="white" opacity="0.55"/>
  <!-- text lines -->
  <line x1="11.5" y1="15" x2="20.5" y2="15" stroke="#3b5bdb" stroke-width="1.4" stroke-linecap="round"/>
  <line x1="11.5" y1="18" x2="20.5" y2="18" stroke="#3b5bdb" stroke-width="1.4" stroke-linecap="round"/>
  <line x1="11.5" y1="21" x2="17"   y2="21" stroke="#3b5bdb" stroke-width="1.4" stroke-linecap="round"/>
</svg>
